<svg width="12" height="12" viewBox="0 0 12 12" fill="none" xmlns="http://www.w3.org/2000/svg">
<path d="M4.35822 4.98084C4.35822 4.55151 4.52876 4.13977 4.83234 3.83619C5.13592 3.53261 5.54766 3.36206 5.97699 3.36206C6.40632 3.36206 6.81806 3.53261 7.12164 3.83619C7.42522 4.13977 7.59576 4.55151 7.59576 4.98084C7.59576 5.41016 7.42522 5.8219 7.12164 6.12548C6.81806 6.42906 6.40632 6.59961 5.97699 6.59961C5.54766 6.59961 5.13592 6.42906 4.83234 6.12548C4.52876 5.8219 4.35822 5.41016 4.35822 4.98084Z" fill="#FDF6EC"/>
<path fill-rule="evenodd" clip-rule="evenodd" d="M1.87978 4.42144C1.96263 3.42017 2.41882 2.48662 3.15785 1.80599C3.89687 1.12537 4.86474 0.747397 5.86944 0.74707H6.08461C7.0893 0.747397 8.05717 1.12537 8.7962 1.80599C9.53523 2.48662 9.99142 3.42017 10.0743 4.42144C10.1662 5.53934 9.82108 6.64935 9.11147 7.51803L6.72415 10.4378C6.63366 10.5486 6.51969 10.6378 6.39048 10.6991C6.26126 10.7604 6.12004 10.7922 5.97702 10.7922C5.83401 10.7922 5.69279 10.7604 5.56357 10.6991C5.43436 10.6378 5.32038 10.5486 5.2299 10.4378L2.84307 7.51803C2.13329 6.64942 1.78798 5.53941 1.87978 4.42144ZM5.97702 2.61489C5.34955 2.61489 4.74777 2.86415 4.30408 3.30784C3.86039 3.75154 3.61112 4.35331 3.61112 4.98079C3.61112 5.60827 3.86039 6.21004 4.30408 6.65373C4.74777 7.09743 5.34955 7.34669 5.97702 7.34669C6.6045 7.34669 7.20628 7.09743 7.64997 6.65373C8.09366 6.21004 8.34292 5.60827 8.34292 4.98079C8.34292 4.35331 8.09366 3.75154 7.64997 3.30784C7.20628 2.86415 6.6045 2.61489 5.97702 2.61489Z" fill="#FDF6EC"/>
</svg>
