<svg width="11" height="11" viewBox="0 0 11 11" fill="none" xmlns="http://www.w3.org/2000/svg">
<g clip-path="url(#clip0_65_28)">
<path d="M3.07213 1.05792L3.83018 0.82937C4.08036 0.75406 4.3494 0.772332 4.5871 0.880778C4.8248 0.989223 5.01493 1.18044 5.12203 1.41875L5.65349 2.60063C5.74573 2.80567 5.77144 3.03445 5.72701 3.25484C5.68258 3.47524 5.57024 3.67619 5.40576 3.82948L4.59684 4.58322C4.48843 4.68615 4.57062 5.08728 4.96667 5.77371C5.36311 6.46054 5.66953 6.73213 5.81081 6.68987L6.87059 6.36583C7.08541 6.30012 7.31541 6.30328 7.52834 6.37487C7.74127 6.44645 7.92646 6.58287 8.05796 6.76501L8.81327 7.81188C8.96583 8.02327 9.03647 8.28286 9.01207 8.54241C8.98767 8.80196 8.86988 9.04383 8.6806 9.22309L8.0967 9.77607C7.90821 9.95458 7.67574 10.0799 7.42301 10.1392C7.17027 10.1986 6.90633 10.1898 6.65809 10.1138C5.43472 9.73928 4.30176 8.62784 3.24393 6.79514C2.18376 4.9597 1.78341 3.41151 2.06244 2.14666C2.11872 1.89179 2.24195 1.65655 2.41943 1.46517C2.59691 1.27379 2.82222 1.13321 3.07213 1.05792Z" fill="#FDF6EC"/>
</g>
<defs>
<clipPath id="clip0_65_28">
<rect width="10.9579" height="10.9579" fill="white"/>
</clipPath>
</defs>
</svg>
