<svg width="24" height="27" viewBox="0 0 24 27" fill="none" xmlns="http://www.w3.org/2000/svg">
<path d="M22.46 6.71191C21.69 7.10344 20.86 7.36073 20 7.48378C20.88 6.8909 21.56 5.95123 21.88 4.82139C21.05 5.38072 20.13 5.77225 19.16 5.99598C18.37 5.03394 17.26 4.47461 16 4.47461C13.65 4.47461 11.73 6.62242 11.73 9.27363C11.73 9.65397 11.77 10.0231 11.84 10.3699C8.28004 10.1686 5.11004 8.25565 3.00004 5.35834C2.63004 6.0631 2.42004 6.8909 2.42004 7.76345C2.42004 9.43024 3.17004 10.9069 4.33004 11.7458C3.62004 11.7458 2.96004 11.5221 2.38004 11.1865V11.2201C2.38004 13.5469 3.86004 15.4933 5.82004 15.9296C5.19088 16.1231 4.53008 16.1499 3.89004 16.0079C4.16165 16.9615 4.69358 17.796 5.41106 18.3939C6.12854 18.9919 6.99549 19.3233 7.89004 19.3415C6.37371 20.6845 4.49405 21.4103 2.56004 21.3998C2.22004 21.3998 1.88004 21.3774 1.54004 21.3327C3.44004 22.6975 5.70004 23.4917 8.12004 23.4917C16 23.4917 20.33 16.1757 20.33 9.83295C20.33 9.62041 20.33 9.41905 20.32 9.20651C21.16 8.53532 21.88 7.68514 22.46 6.71191Z" fill="#FDF6EC"/>
</svg>
