<svg width="24" height="27" viewBox="0 0 24 27" fill="none" xmlns="http://www.w3.org/2000/svg">
<path d="M7.8 2.2373H16.2C19.4 2.2373 22 5.1458 22 8.72549V18.1222C22 19.8429 21.3889 21.4932 20.3012 22.71C19.2135 23.9268 17.7383 24.6104 16.2 24.6104H7.8C4.6 24.6104 2 21.7019 2 18.1222V8.72549C2 7.00471 2.61107 5.35442 3.69878 4.13765C4.78649 2.92088 6.26174 2.2373 7.8 2.2373ZM7.6 4.47461C6.64522 4.47461 5.72955 4.8989 5.05442 5.65413C4.37928 6.40937 4 7.43369 4 8.50176V18.3459C4 20.572 5.61 22.373 7.6 22.373H16.4C17.3548 22.373 18.2705 21.9488 18.9456 21.1935C19.6207 20.4383 20 19.414 20 18.3459V8.50176C20 6.27564 18.39 4.47461 16.4 4.47461H7.6ZM17.25 6.15259C17.5815 6.15259 17.8995 6.29991 18.1339 6.56215C18.3683 6.82438 18.5 7.18005 18.5 7.5509C18.5 7.92176 18.3683 8.27743 18.1339 8.53966C17.8995 8.8019 17.5815 8.94922 17.25 8.94922C16.9185 8.94922 16.6005 8.8019 16.3661 8.53966C16.1317 8.27743 16 7.92176 16 7.5509C16 7.18005 16.1317 6.82438 16.3661 6.56215C16.6005 6.29991 16.9185 6.15259 17.25 6.15259ZM12 7.83057C13.3261 7.83057 14.5979 8.41985 15.5355 9.46879C16.4732 10.5177 17 11.9404 17 13.4238C17 14.9073 16.4732 16.3299 15.5355 17.3789C14.5979 18.4278 13.3261 19.0171 12 19.0171C10.6739 19.0171 9.40215 18.4278 8.46447 17.3789C7.52678 16.3299 7 14.9073 7 13.4238C7 11.9404 7.52678 10.5177 8.46447 9.46879C9.40215 8.41985 10.6739 7.83057 12 7.83057ZM12 10.0679C11.2044 10.0679 10.4413 10.4214 9.87868 11.0508C9.31607 11.6802 9 12.5338 9 13.4238C9 14.3139 9.31607 15.1675 9.87868 15.7968C10.4413 16.4262 11.2044 16.7798 12 16.7798C12.7956 16.7798 13.5587 16.4262 14.1213 15.7968C14.6839 15.1675 15 14.3139 15 13.4238C15 12.5338 14.6839 11.6802 14.1213 11.0508C13.5587 10.4214 12.7956 10.0679 12 10.0679Z" fill="#FDF6EC"/>
</svg>
