<svg width="24" height="27" viewBox="0 0 24 27" fill="none" xmlns="http://www.w3.org/2000/svg">
<path d="M10 16.7798L15.19 13.4238L10 10.0679V16.7798ZM21.56 8.02074C21.69 8.5465 21.78 9.25125 21.84 10.1462C21.91 11.0411 21.94 11.813 21.94 12.4842L22 13.4238C22 15.8737 21.84 17.6747 21.56 18.8269C21.31 19.8337 20.73 20.4825 19.83 20.7622C19.36 20.9076 18.5 21.0083 17.18 21.0754C15.88 21.1537 14.69 21.1873 13.59 21.1873L12 21.2544C7.81 21.2544 5.2 21.0754 4.17 20.7622C3.27 20.4825 2.69 19.8337 2.44 18.8269C2.31 18.3012 2.22 17.5964 2.16 16.7015C2.09 15.8066 2.06 15.0347 2.06 14.3635L2 13.4238C2 10.974 2.16 9.17295 2.44 8.02074C2.69 7.01395 3.27 6.36513 4.17 6.08547C4.64 5.94004 5.5 5.83937 6.82 5.77225C8.12 5.69394 9.31 5.66038 10.41 5.66038L12 5.59326C16.19 5.59326 18.8 5.77225 19.83 6.08547C20.73 6.36513 21.31 7.01395 21.56 8.02074Z" fill="#FDF6EC"/>
</svg>
